# xmcd
#
# Track frame offsets: 
#        150
#        13207
#        33244
#        46408
#        57845
#        76801
#        101768
#        113081
#        138416
#        150669
#        165962
#        178534
#        194911
#        214265
#        223604
#
# Disc length: 3201 seconds
#
# Revision: 0
# Processed by: cddbd v1.5.2PL0 Copyright (c) Steve Scherf et al.
# Submitted via: ExactAudioCopy v1.2
#
DISCID=cd0c7f0f
DTITLE=Giacomo Ferretti - Open
DYEAR=2019
DGENRE=Blues
TTITLE0=Funky Shuffle
TTITLE1=Black White Shoes
TTITLE2=Ready To Go
TTITLE3=A Roundabout
TTITLE4=I’m Tryin
TTITLE5=Everything Is Alright
TTITLE6=Mah!
TTITLE7=Real Things
TTITLE8=What Do You Think About Love?
TTITLE9=Dark Night
TTITLE10=You Gotta Love
TTITLE11=Self Made Man
TTITLE12=Back Home
TTITLE13=Spigoloso Swing
TTITLE14=Hat On Top
EXTD=
EXTT0=
EXTT1=
EXTT2=
EXTT3=
EXTT4=
EXTT5=
EXTT6=
EXTT7=
EXTT8=
EXTT9=
EXTT10=
EXTT11=
EXTT12=
EXTT13=
EXTT14=
PLAYORDER=
